<svg width="25" height="25" viewBox="0 0 25 25" fill="none" xmlns="http://www.w3.org/2000/svg">
<path d="M12.4983 9.11492C12.6424 9.11492 12.7591 8.99824 12.7591 8.85411V7.81428C12.7591 7.67015 12.6424 7.55347 12.4983 7.55347C12.3542 7.55347 12.2375 7.67015 12.2375 7.81428V8.85411C12.2375 8.99824 12.3542 9.11492 12.4983 9.11492Z" fill="#E47BBD"/>
<path d="M12.4983 16.8398C12.6424 16.8398 12.7591 16.7231 12.7591 16.579V9.89387C12.7591 9.74974 12.6424 9.63306 12.4983 9.63306C12.3542 9.63306 12.2375 9.74974 12.2375 9.89387V16.5824C12.2375 16.7265 12.3542 16.8398 12.4983 16.8398Z" fill="#E47BBD"/>
<path d="M20.3844 7.01807C20.2403 7.01807 20.1236 7.13475 20.1236 7.27888V18.1679H13.4935C13.3596 18.1679 13.2361 18.2297 13.1571 18.3395L12.9341 18.6003H12.059L11.8359 18.3395C11.757 18.2331 11.6334 18.1679 11.4996 18.1679H4.86941V7.27888C4.86941 7.13475 4.75273 7.01807 4.60859 7.01807C4.46446 7.01807 4.34778 7.13475 4.34778 7.27888V18.4287C4.34778 18.5728 4.46446 18.6895 4.60859 18.6895H11.4515L11.7432 19.0293C11.7913 19.0876 11.8634 19.1185 11.9423 19.1185H13.0576C13.1331 19.1185 13.2052 19.0842 13.2567 19.0293L13.5484 18.6895H20.3913C20.5354 18.6895 20.6521 18.5728 20.6521 18.4287V7.27888C20.6453 7.13475 20.5286 7.01807 20.3844 7.01807Z" fill="#E47BBD"/>
<path d="M5.90923 6.49647H11.503C11.8153 6.49647 12.107 6.65433 12.282 6.91515C12.3301 6.98721 12.4124 7.03183 12.4982 7.03183C12.584 7.03183 12.6664 6.98721 12.7144 6.91515C12.8895 6.65433 13.1812 6.49647 13.4934 6.49647H19.0838V17.1281H13.4934C13.1194 17.1281 12.7625 17.2722 12.4982 17.5228C12.2306 17.2722 11.8771 17.1281 11.503 17.1281H5.90923V6.49647ZM5.64842 17.6497H11.4996C11.8119 17.6497 12.1036 17.8076 12.2786 18.0684C12.3266 18.1405 12.409 18.1851 12.4948 18.1851C12.5806 18.1851 12.663 18.1405 12.711 18.0684C12.886 17.8076 13.1777 17.6497 13.49 17.6497H19.3446C19.4888 17.6497 19.6054 17.533 19.6054 17.3889V6.23909C19.6054 6.09495 19.4888 5.97827 19.3446 5.97827H13.4934C13.1194 5.97827 12.7625 6.12241 12.4982 6.37293C12.2306 6.12241 11.8771 5.97827 11.4996 5.97827H5.64842C5.50428 5.97827 5.3876 6.09495 5.3876 6.23909V17.3889C5.3876 17.533 5.50428 17.6497 5.64842 17.6497Z" fill="#E47BBD"/>
<path d="M11.1084 7.36475H7.03486C6.89073 7.36475 6.77405 7.48143 6.77405 7.62556C6.77405 7.7697 6.89073 7.88638 7.03486 7.88638H11.1084C11.2525 7.88638 11.3692 7.7697 11.3692 7.62556C11.3692 7.48143 11.2525 7.36475 11.1084 7.36475Z" fill="#E47BBD"/>
<path d="M11.1084 8.40454H7.03486C6.89073 8.40454 6.77405 8.52122 6.77405 8.66536C6.77405 8.80949 6.89073 8.92617 7.03486 8.92617H11.1084C11.2525 8.92617 11.3692 8.80949 11.3692 8.66536C11.3692 8.52122 11.2525 8.40454 11.1084 8.40454Z" fill="#E47BBD"/>
<path d="M11.1084 9.44434H7.03486C6.89073 9.44434 6.77405 9.56102 6.77405 9.70515C6.77405 9.84928 6.89073 9.96597 7.03486 9.96597H11.1084C11.2525 9.96597 11.3692 9.84928 11.3692 9.70515C11.3692 9.56102 11.2525 9.44434 11.1084 9.44434Z" fill="#E47BBD"/>
<path d="M11.1084 10.4875H7.03486C6.89073 10.4875 6.77405 10.6042 6.77405 10.7484C6.77405 10.8925 6.89073 11.0092 7.03486 11.0092H11.1084C11.2525 11.0092 11.3692 10.8925 11.3692 10.7484C11.3692 10.6042 11.2525 10.4875 11.1084 10.4875Z" fill="#E47BBD"/>
<path d="M11.1084 11.5273H7.03486C6.89073 11.5273 6.77405 11.644 6.77405 11.7882C6.77405 11.9323 6.89073 12.049 7.03486 12.049H11.1084C11.2525 12.049 11.3692 11.9323 11.3692 11.7882C11.3692 11.644 11.2525 11.5273 11.1084 11.5273Z" fill="#E47BBD"/>
<path d="M7.03486 13.0853H9.07334C9.21747 13.0853 9.33415 12.9687 9.33415 12.8245C9.33415 12.6804 9.21747 12.5637 9.07334 12.5637H7.03486C6.89073 12.5637 6.77405 12.6804 6.77405 12.8245C6.77405 12.9721 6.89073 13.0853 7.03486 13.0853Z" fill="#E47BBD"/>
<path d="M13.5379 12.1005H17.6114C17.7555 12.1005 17.8722 11.9838 17.8722 11.8397C17.8722 11.6955 17.7555 11.5789 17.6114 11.5789H13.5379C13.3937 11.5789 13.2771 11.6955 13.2771 11.8397C13.2771 11.9838 13.3937 12.1005 13.5379 12.1005Z" fill="#E47BBD"/>
<path d="M13.5379 13.1403H17.6114C17.7555 13.1403 17.8722 13.0236 17.8722 12.8795C17.8722 12.7353 17.7555 12.6187 17.6114 12.6187H13.5379C13.3937 12.6187 13.2771 12.7353 13.2771 12.8795C13.2771 13.0236 13.3937 13.1403 13.5379 13.1403Z" fill="#E47BBD"/>
<path d="M13.5379 14.1803H17.6114C17.7555 14.1803 17.8722 14.0636 17.8722 13.9195C17.8722 13.7754 17.7555 13.6587 17.6114 13.6587H13.5379C13.3937 13.6587 13.2771 13.7754 13.2771 13.9195C13.2771 14.0636 13.3937 14.1803 13.5379 14.1803Z" fill="#E47BBD"/>
<path d="M13.5379 15.2201H17.6114C17.7555 15.2201 17.8722 15.1034 17.8722 14.9593C17.8722 14.8152 17.7555 14.6985 17.6114 14.6985H13.5379C13.3937 14.6985 13.2771 14.8152 13.2771 14.9593C13.2771 15.1034 13.3937 15.2201 13.5379 15.2201Z" fill="#E47BBD"/>
<path d="M13.5379 16.2599H15.5764C15.7205 16.2599 15.8372 16.1432 15.8372 15.9991C15.8372 15.855 15.7205 15.7383 15.5764 15.7383H13.5379C13.3937 15.7383 13.2771 15.855 13.2771 15.9991C13.2771 16.1432 13.3937 16.2599 13.5379 16.2599Z" fill="#E47BBD"/>
<circle cx="12.5" cy="12.5" r="12" stroke="#E47BBD"/>
</svg>
