<svg width="37" height="43" viewBox="0 0 37 43" fill="none" xmlns="http://www.w3.org/2000/svg">
<path d="M34.6688 30.3687C31.9812 25.2625 29.2937 26.0688 26.3375 25.8C26.6062 26.6063 26.6062 27.4125 26.6062 28.4875C30.9062 29.5625 31.9812 34.6688 31.9812 37.625V40.3125H26.6062V37.625H29.2937C29.2937 37.625 29.2937 30.9062 25.2625 30.9062C21.2312 30.9062 21.2313 37.3563 21.2313 37.625H23.9187V40.3125H18.5438V37.625C18.5438 34.6688 19.6187 29.2938 23.9187 28.4875C23.9187 26.875 23.65 25.5312 23.3813 24.9937C22.8438 24.725 22.3062 24.1875 22.3062 23.3813C22.3062 21.7687 24.4562 22.3062 26.0688 19.35C26.0688 19.35 28.4875 13.1687 27.6812 7.79375H24.9937C24.9937 7.25625 25.2625 6.9875 25.2625 6.45C25.2625 5.9125 25.2625 5.64375 24.9937 5.10625H27.1437C26.3375 2.41875 23.65 0 18.5438 0C13.4375 0 10.75 2.41875 9.675 5.375H11.825C11.825 5.9125 11.5563 6.18125 11.5563 6.71875C11.5563 7.25625 11.5563 7.525 11.825 8.0625H9.1375C8.6 13.4375 10.75 19.6187 10.75 19.6187C12.3625 22.3062 14.5125 21.7688 14.5125 23.65C14.5125 24.9937 13.1688 25.5313 11.5563 25.8C11.0188 26.3375 10.4812 27.4125 10.4812 29.5625V32.7875C12.0938 33.325 13.1687 34.9375 13.1687 36.55C13.1687 38.4313 11.2875 40.3125 9.1375 40.3125C6.9875 40.3125 5.10625 38.4313 5.10625 36.2812C5.10625 34.4 6.18125 33.0563 7.79375 32.5187V29.2937C7.79375 27.95 8.0625 26.875 8.33125 25.8C6.45 26.0688 4.3 26.875 2.41875 30.3687C0.80625 33.325 0 43 0 43H36.8187C37.0875 43 36.2812 33.325 34.6688 30.3687ZM14.5125 6.71875C14.5125 4.56875 16.3938 2.6875 18.5438 2.6875C20.6938 2.6875 22.575 4.56875 22.575 6.71875C22.575 8.86875 20.6938 10.75 18.5438 10.75C16.3938 10.75 14.5125 8.86875 14.5125 6.71875Z" fill="white"/>
</svg>
