<svg width="75" height="81" viewBox="0 0 75 81" fill="none" xmlns="http://www.w3.org/2000/svg">
<path d="M17.0824 46.0264L30.5839 13.9361C31.4411 11.8987 33.1696 9.92797 35.7025 8.89526C38.2353 7.86255 40.849 8.06289 43.2483 8.7726C48.342 10.9157 50.7024 16.7051 48.4118 21.437L42.4112 35.6993L47.4769 33.6339L51.7631 23.4465C54.7634 16.3153 51.5178 8.35487 44.5341 5.71639C40.9685 4.21622 37.2694 4.45848 34.0129 5.78624C30.7563 7.11401 28.1567 9.01793 26.6565 12.5835L13.3026 45.0356C12.5121 46.2019 12.231 47.5824 12.0975 49.3248C13.6116 47.8635 15.2732 46.764 17.0824 46.0264Z" fill="#E47BBD"/>
<path d="M27.2918 31.7354L22.1484 43.9603L39.1548 37.0264L27.2918 31.7354Z" fill="#E47BBD"/>
<path d="M51.123 36.3671L18.5575 49.6448C11.6826 52.4479 8.25367 60.5978 11.0567 67.4727C13.8598 74.3477 22.0097 77.7766 28.8846 74.9735L61.4501 61.6958C68.3251 58.8928 71.754 50.7429 68.951 43.8679C66.1479 36.993 57.998 33.564 51.123 36.3671ZM59.9748 58.0774L43.6921 64.7163L37.7909 50.2427L21.5081 56.8816C17.5279 58.5044 15.1565 62.0032 14.2325 64.9119C13.1859 60.2748 15.3289 55.1811 20.0328 53.2632L52.5983 39.9855C57.6641 37.9201 63.2671 40.2775 65.3326 45.3432C67.398 50.409 65.0406 56.012 59.9748 58.0774Z" fill="#E47BBD"/>
</svg>
