<svg width="34" height="34" viewBox="0 0 34 34" fill="none" xmlns="http://www.w3.org/2000/svg">
<path d="M17 0C13.6377 0 10.3509 0.997033 7.55531 2.86502C4.75968 4.733 2.58074 7.38804 1.29405 10.4944C0.00736404 13.6007 -0.32929 17.0189 0.326659 20.3165C0.982607 23.6142 2.6017 26.6433 4.97919 29.0208C7.35669 31.3983 10.3858 33.0174 13.6835 33.6733C16.9812 34.3293 20.3993 33.9926 23.5056 32.706C26.612 31.4193 29.267 29.2403 31.135 26.4447C33.003 23.6491 34 20.3623 34 17C33.9968 12.4923 32.2046 8.1702 29.0172 4.98279C25.8298 1.79538 21.5077 0.00326289 17 0ZM17 1.47826C20.0581 1.47663 23.0486 2.37841 25.596 4.07039C28.1435 5.76237 30.1343 8.16915 31.3187 10.9886C32.5031 13.8081 32.8282 16.9146 32.2532 19.9182C31.6783 22.9218 30.2289 25.6886 28.087 27.8714C26.7258 26.9974 25.2442 26.3271 23.6891 25.8819C22.9945 25.6548 22.3223 25.3641 21.6812 25.0134C21.2806 24.807 20.9599 24.4734 20.7696 24.0649C20.7018 23.2149 20.7141 22.5373 20.7203 21.7304C20.8127 21.6442 20.9236 21.5764 21.0159 21.4717C21.2447 21.1844 21.4506 20.8796 21.6319 20.5601C22.004 19.9189 22.2643 19.2191 22.4018 18.4906C22.6337 18.4183 22.8449 18.2916 23.0178 18.121C23.4021 17.5763 23.632 16.9379 23.683 16.2732C23.7259 15.9824 23.7076 15.6859 23.6291 15.4027C23.5506 15.1194 23.4137 14.8558 23.2272 14.6286C23.7104 13.1493 23.9192 11.5942 23.8431 10.0399C23.8005 9.04292 23.4828 8.07723 22.9254 7.24964C22.2768 6.40271 21.321 5.84512 20.2645 5.69746C19.8257 5.26394 19.2989 4.92963 18.7198 4.71712C18.1407 4.5046 17.5227 4.41882 16.9076 4.46558C13.7294 4.52101 11.6783 5.83913 10.7975 7.8471C9.95979 9.75652 10.1446 12.1587 10.742 14.6225C10.5587 14.8433 10.4227 15.0993 10.3421 15.3747C10.2616 15.6501 10.2384 15.9392 10.2739 16.2239C10.3249 16.8886 10.5548 17.5271 10.9391 18.0717C11.112 18.2423 11.3232 18.369 11.5551 18.4413C11.6974 19.1799 11.9662 19.8884 12.3496 20.5355C12.5309 20.855 12.7368 21.1598 12.9656 21.4471C13.058 21.558 13.1688 21.6196 13.2612 21.7058C13.2612 22.5127 13.2612 23.1902 13.212 24.0402C13.0213 24.4484 12.7007 24.782 12.3004 24.9888C11.6592 25.3395 10.987 25.6302 10.2924 25.8572C8.73947 26.3083 7.25867 26.9782 5.89457 27.8467C3.75991 25.6617 2.31745 22.8953 1.74787 19.8942C1.17829 16.893 1.50691 13.7906 2.69257 10.9753C3.87824 8.16012 5.86824 5.75734 8.41329 4.06797C10.9583 2.37859 13.9453 1.47775 17 1.47826ZM16.9446 5.90688C18.3058 5.90688 19.1681 6.31341 19.4083 6.72609L19.587 7.04022L19.9442 7.08949C20.3072 7.11013 20.6611 7.21085 20.9806 7.38443C21.3001 7.55801 21.5772 7.80015 21.792 8.09348C22.1763 8.70563 22.389 9.40975 22.408 10.1322C22.4634 11.621 22.2548 13.1078 21.792 14.5239L21.6073 15.0844L22.1123 15.3924C22.1934 15.4832 22.2514 15.5921 22.2814 15.7101C22.3114 15.828 22.3126 15.9514 22.2848 16.0699C22.2652 16.4721 22.1421 16.8625 21.9275 17.2033C21.9145 17.2341 21.8943 17.2614 21.8686 17.2828C21.8429 17.3043 21.8124 17.3192 21.7797 17.3264L21.1638 17.3757L21.096 17.9917C20.9859 18.6324 20.7515 19.2455 20.4062 19.7964C20.2565 20.0492 20.0877 20.2901 19.9011 20.517C19.7471 20.6957 19.5808 20.8127 19.6486 20.7757L19.2544 20.9851V21.4348C19.2248 22.4084 19.2454 23.3829 19.316 24.3543V24.4529L19.3529 24.5453C19.6642 25.2912 20.2233 25.9069 20.9359 26.2884C21.6594 26.6921 22.4207 27.0242 23.2087 27.2801C24.5238 27.68 25.7903 28.2254 26.9844 28.9062C24.1915 31.2427 20.666 32.523 17.0246 32.523C13.3832 32.523 9.85776 31.2427 7.06486 28.9062C8.26321 28.2294 9.5312 27.6842 10.8467 27.2801C11.633 27.022 12.3921 26.6878 13.1134 26.2822C13.8231 25.8988 14.3797 25.2835 14.6902 24.5391L14.7272 24.4467V24.3482C14.7973 23.3767 14.8179 22.4022 14.7888 21.4286V20.979L14.3946 20.7696C14.4562 20.8004 14.2899 20.6895 14.142 20.5109C13.9532 20.2843 13.7823 20.0433 13.6308 19.7902C13.2855 19.2393 13.0511 18.6263 12.941 17.9855L12.8732 17.3696L12.2573 17.3203C12.2246 17.3131 12.1941 17.2981 12.1684 17.2767C12.1426 17.2552 12.1224 17.228 12.1094 17.1971C11.8948 16.8563 11.7718 16.466 11.7522 16.0638C11.7249 15.9453 11.7263 15.822 11.7563 15.7041C11.7863 15.5863 11.844 15.4773 11.9246 15.3862L12.3928 15.1029L12.2265 14.5732C11.6105 12.1094 11.4935 9.89819 12.1464 8.41377C12.7993 6.92935 14.1297 5.96232 16.9446 5.90688Z" fill="#00664B"/>
</svg>
